<?xml version="1.0" standalone="no"?>
<!DOCTYPE svg PUBLIC "-//W3C//DTD SVG 1.1//EN" "http://www.w3.org/Graphics/SVG/1.1/DTD/svg11.dtd" >
<svg xmlns="http://www.w3.org/2000/svg" xmlns:xlink="http://www.w3.org/1999/xlink" version="1.1">
<metadata></metadata>
<defs>
<font id="trump_town_proregular" horiz-adv-x="983" >
<font-face units-per-em="2048" ascent="1638" descent="-410" />
<missing-glyph horiz-adv-x="393" />
<glyph horiz-adv-x="0" />
<glyph horiz-adv-x="682" />
<glyph unicode=" "  horiz-adv-x="393" />
<glyph unicode="&#x09;" horiz-adv-x="393" />
<glyph unicode="&#xa0;" horiz-adv-x="393" />
<glyph unicode="!" horiz-adv-x="491" d="M295 0h-98q-44 0 -71.5 27t-27.5 71v99q0 41 29 69.5t70 28.5h98q38 0 68 -30t30 -68v-99q0 -41 -28.5 -69.5t-69.5 -28.5zM393 393h-295v983h295v-983z" />
<glyph unicode="&#x22;" horiz-adv-x="786" d="M246 786h-99l-98 197v393h295v-393zM639 786h-98l-99 197v393h295v-393z" />
<glyph unicode="#" horiz-adv-x="1081" d="M442 590h197v196h-197v-196zM442 98h-196v295h-197v197h197v196h-197v197h197v295h196v-295h197v295h197v-295h196v-197h-196v-196h196v-197h-196v-295h-197v295h-197v-295z" />
<glyph unicode="$" d="M541 393h98v197h-98v-197zM344 786h98v197h-98v-197zM541 -98h-99v196h-393v394h295v-99h98v197h-295q-44 0 -71 27t-27 71v492q0 41 28.5 69.5t69.5 28.5h295v197h99v-197h393v-393h-295v98h-98v-197h295q38 0 68 -30t30 -68v-491q0 -41 -28.5 -70t-69.5 -29h-295v-196z " />
<glyph unicode="%" horiz-adv-x="1572" d="M1130 197h197v393h-197v-393zM1425 0h-393q-44 0 -71 27t-27 71v590q0 41 28.5 69.5t69.5 28.5h393q38 0 68.5 -30t30.5 -68v-590q0 -41 -29 -69.5t-70 -28.5zM246 786h196v394h-196v-394zM541 590h-394q-44 0 -71 27t-27 71v590q0 41 28.5 69.5t69.5 28.5h394 q38 0 68 -30t30 -68v-590q0 -41 -28.5 -69.5t-69.5 -28.5zM541 0h-197l688 1376h197z" />
<glyph unicode="&#x26;" horiz-adv-x="1376" d="M344 393l98 -98l197 197l-98 98zM442 1081l99 -98l98 98v99h-197v-99zM541 0h-197l-295 295v197l295 294l-197 197v295q0 41 29 69.5t70 28.5h590q38 0 68 -30t30 -68v-295l-197 -197l99 -98l196 197l197 -197l-197 -196l295 -295l-197 -197l-294 295z" />
<glyph unicode="'" horiz-adv-x="393" d="M246 786h-99l-98 197v393h295v-393z" />
<glyph unicode="(" horiz-adv-x="491" d="M442 -393h-295q-41 0 -69.5 27.5t-28.5 70.5v1770q0 41 28.5 69.5t69.5 28.5h295v-197h-98v-1573h98v-196z" />
<glyph unicode=")" horiz-adv-x="491" d="M344 -393h-295v196h98v1573h-98v197h295q38 0 68 -30t30 -68v-1770q0 -39 -30.5 -68.5t-67.5 -29.5z" />
<glyph unicode="*" horiz-adv-x="884" d="M541 492h-197v245l-295 -147v246l197 98l-197 98v246l295 -148v246h197v-246l295 148v-246l-197 -98l197 -98v-246l-295 147v-245z" />
<glyph unicode="+" horiz-adv-x="884" d="M541 295h-197v295h-295v196h295v295h197v-295h295v-196h-295v-295z" />
<glyph unicode="," horiz-adv-x="442" d="M147 -295h-245l245 492h246z" />
<glyph unicode="-" horiz-adv-x="688" d="M639 590h-590v196h590v-196z" />
<glyph unicode="." horiz-adv-x="393" d="M246 0h-99q-44 0 -71 27t-27 71v99q0 41 28.5 69.5t69.5 28.5h99q38 0 68 -30t30 -68v-99q0 -41 -28.5 -69.5t-69.5 -28.5z" />
<glyph unicode="/" d="M295 0h-295l688 1376h295z" />
<glyph unicode="0" d="M344 295h295v786h-295v-786zM836 0h-689q-44 0 -71 27t-27 71v1180q0 41 28.5 69.5t69.5 28.5h689q38 0 68 -30t30 -68v-1180q0 -41 -28.5 -69.5t-69.5 -28.5z" />
<glyph unicode="1" horiz-adv-x="688" d="M639 0h-492v295h99v688l-99 -98l-196 196l295 295h295v-1081h98v-295z" />
<glyph unicode="2" d="M934 0h-885v295l590 590v196h-295v-196h-295v393q0 41 28.5 69.5t69.5 28.5h689q38 0 68 -30t30 -68v-492l-492 -491h492v-295z" />
<glyph unicode="3" d="M836 0h-689q-44 0 -71 27t-27 71v295h295v-98h295v295h-295v196l295 295h-295v-98h-295v393h885v-295l-295 -295h197q38 0 68 -30t30 -68v-590q0 -41 -28.5 -69.5t-69.5 -28.5z" />
<glyph unicode="4" horiz-adv-x="933" d="M295 590h197v393zM885 0h-492v295h99v98h-492v99l442 884h344v-786h99v-197h-99v-98h99v-295z" />
<glyph unicode="5" d="M836 0h-689q-44 0 -71 27t-27 71v295h295v-98h295v295h-590v786h885v-295h-590v-295h492q38 0 68 -30t30 -68v-590q0 -41 -28.5 -69.5t-69.5 -28.5z" />
<glyph unicode="6" d="M344 295h295v295h-295v-295zM836 0h-689q-44 0 -71 27t-27 71v1180q0 41 28.5 69.5t69.5 28.5h689q38 0 68 -30t30 -68v-295h-295v98h-295v-295h492q38 0 68 -30t30 -68v-590q0 -41 -28.5 -69.5t-69.5 -28.5z" />
<glyph unicode="7" d="M393 0h-295l541 1081h-295v-196h-295v491h885v-295z" />
<glyph unicode="8" d="M344 295h295v295h-295v-295zM344 786h295v295h-295v-295zM836 0h-689q-44 0 -71 27t-27 71v492q0 41 28.5 69.5t69.5 28.5q-44 0 -71 27t-27 71v492q0 41 28.5 69.5t69.5 28.5h689q38 0 68 -30t30 -68v-492q0 -41 -28.5 -69.5t-69.5 -28.5q38 0 68 -30t30 -68v-492 q0 -41 -28.5 -69.5t-69.5 -28.5z" />
<glyph unicode="9" d="M344 786h295v295h-295v-295zM836 0h-689q-44 0 -71 27t-27 71v295h295v-98h295v295h-492q-44 0 -71 27t-27 71v590q0 41 28.5 69.5t69.5 28.5h689q38 0 68 -30t30 -68v-1180q0 -41 -28.5 -69.5t-69.5 -28.5z" />
<glyph unicode=":" horiz-adv-x="393" d="M246 0h-99q-44 0 -71 27t-27 71v99q0 41 28.5 69.5t69.5 28.5h99q38 0 68 -30t30 -68v-99q0 -41 -28.5 -69.5t-69.5 -28.5zM246 590h-99q-44 0 -71 27t-27 71v98q0 41 28.5 70t69.5 29h99q38 0 68 -30.5t30 -68.5v-98q0 -41 -28.5 -69.5t-69.5 -28.5z" />
<glyph unicode=";" horiz-adv-x="442" d="M147 -295h-245l245 492h246zM295 590h-98q-44 0 -71.5 27t-27.5 71v98q0 41 29 70t70 29h98q38 0 68 -30.5t30 -68.5v-98q0 -41 -28.5 -69.5t-69.5 -28.5z" />
<glyph unicode="&#x3c;" horiz-adv-x="884" d="M836 442v-245l-787 393v196l787 394v-246l-492 -246z" />
<glyph unicode="=" horiz-adv-x="884" d="M836 393h-787v197h787v-197zM836 786h-787v197h787v-197z" />
<glyph unicode="&#x3e;" horiz-adv-x="884" d="M836 590l-787 -393v245l492 246l-492 246v246l787 -394v-196z" />
<glyph unicode="?" horiz-adv-x="884" d="M442 0h-98q-44 0 -71 27t-27 71v99q0 41 28.5 69.5t69.5 28.5h98q38 0 68.5 -30t30.5 -68v-99q0 -41 -29 -69.5t-70 -28.5zM541 393h-295v393h295v295h-197v-98h-295v295q0 41 28.5 69.5t69.5 28.5h590q38 0 68.5 -30t30.5 -68v-590q0 -41 -29 -69.5t-70 -28.5h-196v-197 z" />
<glyph unicode="@" horiz-adv-x="1769" d="M786 197h197v589h-197v-589zM1278 -393h-1081q-41 0 -70 27.5t-29 70.5v1573q0 41 29 69.5t70 28.5h1376q38 0 68 -30t30 -68v-1180q0 -41 -28.5 -69.5t-69.5 -28.5h-590v98l-98 -98h-295q-44 0 -71 27t-27 71v787q0 41 28.5 69.5t69.5 28.5h295l98 -98v98h295v-786h197 v983h-1180v-1377h983v-196z" />
<glyph unicode="A" horiz-adv-x="1179" d="M442 590h295v491h-295v-491zM442 0h-393v295h98v983q0 41 29 69.5t70 28.5h688q38 0 68 -30t30 -68v-983h98v-295h-393v393h-295v-393z" />
<glyph unicode="B" horiz-adv-x="1081" d="M442 295h295v295h-295v-295zM442 786h295v295h-295v-295zM934 0h-885v295h98v786h-98v295h885q38 0 68 -30t30 -68v-492q0 -41 -28.5 -69.5t-69.5 -28.5q38 0 68 -30t30 -68v-492q0 -41 -28.5 -69.5t-69.5 -28.5z" />
<glyph unicode="C" d="M934 0h-787q-44 0 -71 27t-27 71v1180q0 41 28.5 69.5t69.5 28.5h787v-491h-295v196h-295v-786h295v197h295v-492z" />
<glyph unicode="D" horiz-adv-x="1081" d="M442 295h295v786h-295v-786zM934 0h-885v295h98v786h-98v295h885q38 0 68 -30t30 -68v-1180q0 -41 -28.5 -69.5t-69.5 -28.5z" />
<glyph unicode="E" horiz-adv-x="1081" d="M1032 0h-983v295h98v786h-98v295h983v-393h-295v98h-295v-295h394v-196h-394v-295h295v98h295v-393z" />
<glyph unicode="F" horiz-adv-x="1081" d="M541 0h-492v295h98v786h-98v295h983v-393h-295v98h-295v-295h394v-196h-394v-295h99v-295z" />
<glyph unicode="G" d="M934 0h-787q-44 0 -71 27t-27 71v1180q0 41 28.5 69.5t69.5 28.5h787v-393h-295v98h-295v-786h295v295h-197v196h492v-786z" />
<glyph unicode="H" horiz-adv-x="1179" d="M442 0h-393v295h98v786h-98v295h393v-590h295v590h393v-295h-98v-786h98v-295h-393v590h-295v-590z" />
<glyph unicode="I" horiz-adv-x="589" d="M541 0h-492v295h98v786h-98v295h492v-295h-99v-786h99v-295z" />
<glyph unicode="J" d="M737 0h-590q-44 0 -71 27t-27 71v394h295v-197h197v786h-99v295h492v-295h-98v-983q0 -41 -29 -69.5t-70 -28.5z" />
<glyph unicode="K" horiz-adv-x="1179" d="M442 0h-393v295h98v786h-98v295h393v-590l295 590h393v-295h-196l-148 -295h246v-491h98v-295h-393v590h-295v-590z" />
<glyph unicode="L" d="M934 0h-885v295h98v786h-98v295h492v-295h-99v-786h197v197h295v-492z" />
<glyph unicode="M" horiz-adv-x="1474" d="M442 0h-393v295h98v786h-98v295h393l295 -590l295 590h393v-295h-98v-786h98v-295h-393v786l-295 -589l-295 589v-786z" />
<glyph unicode="N" horiz-adv-x="1277" d="M442 0h-393v295h98v786h-98v295h393l394 -786v786h393v-295h-99v-786h99v-295h-393l-394 786v-786z" />
<glyph unicode="O" d="M344 295h295v786h-295v-786zM836 0h-689q-44 0 -71 27t-27 71v1180q0 41 28.5 69.5t69.5 28.5h689q38 0 68 -30t30 -68v-1180q0 -41 -28.5 -69.5t-69.5 -28.5z" />
<glyph unicode="P" horiz-adv-x="1081" d="M442 786h295v295h-295v-295zM541 0h-492v295h98v786h-98v295h885q38 0 68 -30t30 -68v-590q0 -41 -28.5 -69.5t-69.5 -28.5h-492v-295h99v-295z" />
<glyph unicode="Q" d="M344 295h295v786h-295v-786zM639 -197h-295v197h-197q-44 0 -71 27t-27 71v1180q0 41 28.5 69.5t69.5 28.5h689q38 0 68 -30t30 -68v-1180q0 -41 -28.5 -69.5t-69.5 -28.5h-197v-197z" />
<glyph unicode="R" horiz-adv-x="1179" d="M442 786h295v295h-295v-295zM541 0h-492v295h98v786h-98v295h885q38 0 68 -30t30 -68v-492q0 -41 -28.5 -69.5t-69.5 -28.5q38 0 68 -30t30 -68v-295h98v-295h-294q-44 0 -71.5 27t-27.5 71v492h-295v-295h99v-295z" />
<glyph unicode="S" d="M836 0h-787v393h295v-98h295v295h-492q-44 0 -71 27t-27 71v590q0 41 28.5 69.5t69.5 28.5h787v-393h-295v98h-295v-295h492q38 0 68 -30t30 -68v-590q0 -41 -28.5 -69.5t-69.5 -28.5z" />
<glyph unicode="T" horiz-adv-x="1179" d="M836 0h-492v295h98v786h-196v-295h-197v590h1081v-590h-196v295h-197v-786h99v-295z" />
<glyph unicode="U" horiz-adv-x="1179" d="M934 0h-688q-44 0 -71.5 27t-27.5 71v983h-98v295h393v-1081h295v1081h393v-295h-98v-983q0 -41 -28.5 -69.5t-69.5 -28.5z" />
<glyph unicode="V" horiz-adv-x="1179" d="M786 0h-393l-246 492v589h-98v295h393v-786l148 -295l147 295v491h-98v295h491v-295h-98v-589z" />
<glyph unicode="W" horiz-adv-x="1769" d="M786 0h-393l-246 492v589h-98v295h492v-295h-99v-491l148 -295l147 295v786h295v-786l148 -295l147 295v491h-98v295h491v-295h-98v-589l-246 -492h-393l-98 197z" />
<glyph unicode="X" horiz-adv-x="1081" d="M442 0h-393v295h98l197 393l-197 393h-98v295h295l197 -393l98 197v196h393v-295h-98l-197 -393l197 -393h98v-295h-295l-196 393l-99 -196v-197z" />
<glyph unicode="Y" horiz-adv-x="1179" d="M836 0h-492v295h98v197l-295 589h-98v295h295l246 -491l246 491h294v-295h-98l-295 -589v-197h99v-295z" />
<glyph unicode="Z" horiz-adv-x="1081" d="M1032 0h-983v393l688 688h-393v-98h-295v393h983v-393l-688 -688h393v98h295v-393z" />
<glyph unicode="[" horiz-adv-x="491" d="M442 -393h-393v1966h393v-197h-98v-1573h98v-196z" />
<glyph unicode="\" d="M983 0h-295l-688 1376h295z" />
<glyph unicode="]" horiz-adv-x="491" d="M442 -393h-393v196h98v1573h-98v197h393v-1966z" />
<glyph unicode="^" horiz-adv-x="884" d="M295 393h-246l295 590h197l295 -590h-246l-148 295z" />
<glyph unicode="_" horiz-adv-x="884" d="M836 -295h-787v197h787v-197z" />
<glyph unicode="`" horiz-adv-x="442" d="M442 1081h-245l-148 295h246z" />
<glyph unicode="a" d="M344 197h197v196h-197v-196zM442 0h-295q-44 0 -71 27t-27 71v394q0 41 28.5 69.5t69.5 28.5h394v196h-197v-98h-295v197q0 41 28.5 69.5t69.5 28.5h590q38 0 68.5 -30t30.5 -68v-688h98v-197h-393v98z" />
<glyph unicode="b" d="M442 197h197v589h-197v-589zM442 0h-393v197h98v983h-98v196h393v-491l99 98h295q38 0 68 -30t30 -68v-787q0 -41 -28.5 -69.5t-69.5 -28.5h-295l-99 98v-98z" />
<glyph unicode="c" horiz-adv-x="884" d="M737 0h-590q-44 0 -71 27t-27 71v787q0 41 28.5 69.5t69.5 28.5h590q38 0 68.5 -30t30.5 -68v-197h-295v98h-197v-589h197v98h295v-197q0 -41 -29 -69.5t-70 -28.5z" />
<glyph unicode="d" d="M344 197h197v589h-197v-589zM442 0h-295q-44 0 -71 27t-27 71v787q0 41 28.5 69.5t69.5 28.5h295l99 -98v295h-99v196h394v-1179h98v-197h-393v98z" />
<glyph unicode="e" horiz-adv-x="884" d="M344 590h197v196h-197v-196zM737 0h-590q-44 0 -71 27t-27 71v787q0 41 28.5 69.5t69.5 28.5h590q38 0 68.5 -30t30.5 -68v-492h-492v-196h197v98h295v-197q0 -41 -29 -69.5t-70 -28.5z" />
<glyph unicode="f" horiz-adv-x="589" d="M541 0h-492v197h98v589h-98v197h98v295q0 41 29 69.5t70 28.5h295v-196h-99v-197h99v-197h-99v-589h99v-197z" />
<glyph unicode="g" d="M344 197h197v589h-197v-589zM737 -393h-590q-41 0 -69.5 27.5t-28.5 70.5v197h295v-99h197v295l-99 -98h-295q-44 0 -71 27t-27 71v787q0 41 28.5 69.5t69.5 28.5h295l99 -98v98h393v-197h-98v-1081q0 -39 -30.5 -68.5t-68.5 -29.5z" />
<glyph unicode="h" horiz-adv-x="1081" d="M442 0h-393v197h98v983h-98v196h393v-491l99 98h295q38 0 68 -30t30 -68v-688h98v-197h-393v786h-197v-786z" />
<glyph unicode="i" horiz-adv-x="589" d="M541 0h-492v197h98v589h-98v197h393v-786h99v-197zM344 1081h-98q-44 0 -71.5 27.5t-27.5 71.5v98q0 41 29 69.5t70 28.5h98q38 0 68 -30t30 -68v-98q0 -41 -28.5 -70t-69.5 -29z" />
<glyph unicode="j" horiz-adv-x="589" d="M344 -393h-295v196h98v983h-98v197h492v-197h-99v-1081q0 -39 -30.5 -68.5t-67.5 -29.5zM344 1081h-98q-44 0 -71.5 27.5t-27.5 71.5v98q0 41 29 69.5t70 28.5h98q38 0 68 -30t30 -68v-98q0 -41 -28.5 -70t-69.5 -29z" />
<glyph unicode="k" horiz-adv-x="1081" d="M442 0h-393v197h98v983h-98v196h393v-786l197 393h295v-197h-98l-99 -196h197v-393h98v-197h-393v393h-197v-393z" />
<glyph unicode="l" horiz-adv-x="589" d="M541 0h-492v197h98v983h-98v196h393v-1179h99v-197z" />
<glyph unicode="m" horiz-adv-x="1572" d="M442 0h-295v786h-98v197h393v-98l99 98h295q38 0 68 -30t30 -68l98 98h295q38 0 68 -30t30 -68v-688h99v-197h-394v786h-196v-786h-295v786h-197v-786z" />
<glyph unicode="n" horiz-adv-x="1081" d="M442 0h-295v786h-98v197h393v-98l99 98h295q38 0 68 -30t30 -68v-688h98v-197h-393v786h-197v-786z" />
<glyph unicode="o" horiz-adv-x="884" d="M344 197h197v589h-197v-589zM737 0h-590q-44 0 -71 27t-27 71v787q0 41 28.5 69.5t69.5 28.5h590q38 0 68.5 -30t30.5 -68v-787q0 -41 -29 -69.5t-70 -28.5z" />
<glyph unicode="p" d="M442 197h197v589h-197v-589zM541 -393h-492v196h98v983h-98v197h393v-98l99 98h295q38 0 68 -30t30 -68v-787q0 -41 -28.5 -69.5t-69.5 -28.5h-295l-99 98v-295h99v-196z" />
<glyph unicode="q" d="M344 197h197v589h-197v-589zM934 -393h-492v196h99v295l-99 -98h-295q-44 0 -71 27t-27 71v787q0 41 28.5 69.5t69.5 28.5h295l99 -98v98h393v-197h-98v-983h98v-196z" />
<glyph unicode="r" horiz-adv-x="884" d="M541 0h-492v197h98v589h-98v197h393v-98l99 98h196q38 0 68.5 -30t30.5 -68v-197h-295v98h-99v-589h99v-197z" />
<glyph unicode="s" horiz-adv-x="884" d="M737 0h-688v295h295v-98h197v196h-394q-44 0 -71 27.5t-27 71.5v393q0 41 28.5 69.5t69.5 28.5h689v-295h-295v98h-197v-196h393q38 0 68.5 -30t30.5 -68v-394q0 -41 -29 -69.5t-70 -28.5z" />
<glyph unicode="t" horiz-adv-x="589" d="M541 0h-295q-44 0 -71.5 27t-27.5 71v688h-98v197h98v197h295v-197h99v-197h-99v-589h99v-197z" />
<glyph unicode="u" horiz-adv-x="1081" d="M541 0h-295q-44 0 -71.5 27t-27.5 71v688h-98v197h393v-786h197v786h295v-786h98v-197h-393v98z" />
<glyph unicode="v" horiz-adv-x="1081" d="M688 0h-295l-246 492v294h-98v197h393v-491l99 -197l98 197v491h393v-197h-98v-294z" />
<glyph unicode="w" horiz-adv-x="1572" d="M688 0h-295l-246 492v294h-98v197h393v-491l99 -197l98 197v491h295v-491l98 -197l98 197v491h394v-197h-99v-294l-245 -492h-295l-99 197z" />
<glyph unicode="x" d="M344 0h-295v197h98l148 295l-148 294h-98v197h295l148 -295l147 295h295v-197h-98l-148 -294l148 -295h98v-197h-295l-147 295z" />
<glyph unicode="y" horiz-adv-x="1081" d="M492 -393h-295v196h98l98 197l-246 492v294h-98v197h393v-491l99 -197l98 197v491h393v-197h-98v-294z" />
<glyph unicode="z" d="M934 0h-885v197l590 589h-295v-98h-295v295h885v-197l-590 -589h295v98h295v-295z" />
<glyph unicode="{" horiz-adv-x="589" d="M541 -393h-295q-41 0 -70 27.5t-29 70.5v787h-98v196h98v787q0 41 29 69.5t70 28.5h295v-197h-99v-688q0 -41 -28.5 -69.5t-69.5 -28.5q38 0 68 -30t30 -68v-689h99v-196z" />
<glyph unicode="|" horiz-adv-x="393" d="M344 -393h-295v1966h295v-1966z" />
<glyph unicode="}" horiz-adv-x="589" d="M344 -393h-295v196h98v689q0 41 29 69.5t70 28.5q-44 0 -71.5 27t-27.5 71v688h-98v197h295q38 0 68 -30t30 -68v-787h99v-196h-99v-787q0 -39 -30.5 -68.5t-67.5 -29.5z" />
<glyph unicode="~" horiz-adv-x="884" d="M246 492h-197v294q0 41 28.5 70t69.5 29h295l197 -197v197h197v-295q0 -41 -29 -69.5t-70 -28.5h-295l-196 196v-196z" />
<glyph unicode="&#xa1;" horiz-adv-x="491" d="M393 -197h-295v983h295v-983zM295 885h-98q-44 0 -71.5 27t-27.5 71v98q0 41 29 70t70 29h98q38 0 68 -30.5t30 -68.5v-98q0 -41 -28.5 -69.5t-69.5 -28.5z" />
<glyph unicode="&#xa2;" d="M344 295h98v786h-98v-786zM541 -98h-99v196h-295q-44 0 -71 27.5t-27 71.5v983q0 41 28.5 69.5t69.5 28.5h295v197h99v-197h295q38 0 68 -30t30 -68v-197h-295v98h-98v-786h98v98h295v-196q0 -41 -28.5 -70t-69.5 -29h-295v-196z" />
<glyph unicode="&#xa3;" horiz-adv-x="1081" d="M1032 0h-983v295h98v295h-98v196h98v492q0 41 29 69.5t70 28.5h688q38 0 68 -30t30 -68v-295h-295v98h-295v-295h295v-196h-295v-295h295v98h295v-393z" />
<glyph unicode="&#xa4;" horiz-adv-x="1081" d="M442 590h197v196h-197v-196zM246 295l-99 -98l-98 98l197 197v393l-197 196l98 99l197 -197h393l197 197l98 -99l-196 -196v-393l196 -197l-98 -98l-197 196h-393z" />
<glyph unicode="&#xa5;" horiz-adv-x="1179" d="M836 0h-492v295h98v98h-295v99h295l-49 98h-246v98h197l-197 393h-98v295h295l246 -491l246 491h294v-295h-98l-196 -393h196v-98h-246l-49 -98h295v-99h-295v-98h99v-295z" />
<glyph unicode="&#xa6;" horiz-adv-x="294" d="M246 -197h-197v787h197v-787zM246 786h-197v787h197v-787z" />
<glyph unicode="&#xa7;" horiz-adv-x="884" d="M344 492h197v393h-197v-393zM737 -197h-590q-41 0 -69.5 28t-28.5 71v196h295v-98h197v295h-394q-44 0 -71 27t-27 71v492q0 41 28.5 69.5t69.5 28.5q-44 0 -71 27t-27 71v394q0 41 28.5 69.5t69.5 28.5h590q38 0 68.5 -30t30.5 -68v-197h-295v98h-197v-295h393 q38 0 68.5 -30t30.5 -68v-491q0 -41 -29 -70t-70 -29q38 0 68.5 -30t30.5 -68v-393q0 -39 -31 -69t-68 -30z" />
<glyph unicode="&#xa8;" horiz-adv-x="786" d="M246 1081h-99q-44 0 -71 27.5t-27 71.5v98q0 41 28.5 69.5t69.5 28.5h99q38 0 68 -30t30 -68v-98q0 -41 -28.5 -70t-69.5 -29zM639 1081h-98q-44 0 -71.5 27.5t-27.5 71.5v98q0 41 29 69.5t70 28.5h98q38 0 68 -30t30 -68v-98q0 -41 -28.5 -70t-69.5 -29z" />
<glyph unicode="&#xa9;" horiz-adv-x="1572" d="M1081 393h-491q-44 0 -71 27.5t-27 71.5v393q0 41 28.5 69.5t69.5 28.5h491v-197h-196v99h-197v-393h197v98h196v-197zM295 197h983v983h-983v-983zM1376 0h-1179q-44 0 -71.5 27t-27.5 71v1180q0 41 29 69.5t70 28.5h1179q38 0 68.5 -30t30.5 -68v-1180q0 -41 -29 -69.5 t-70 -28.5z" />
<glyph unicode="&#xaa;" horiz-adv-x="589" d="M246 786h98v197h-98v-197zM246 688h-99q-44 0 -71 27t-27 71v197q0 41 28.5 69.5t69.5 28.5h197v197h-98v-98h-197v98q0 41 28.5 69.5t69.5 28.5h295q38 0 68.5 -30t30.5 -68v-590h-197v49z" />
<glyph unicode="&#xab;" horiz-adv-x="884" d="M442 295v-295l-393 393v197l393 393v-295l-196 -196zM836 295v-295l-394 393v197l394 393v-295l-197 -196z" />
<glyph unicode="&#xac;" horiz-adv-x="884" d="M836 295h-197v295h-590v196h787v-491z" />
<glyph unicode="&#xad;" horiz-adv-x="688" d="M639 590h-590v196h590v-196z" />
<glyph unicode="&#xae;" horiz-adv-x="1572" d="M688 688h197v197h-197v-197zM688 393h-295v99h99v393h-99v98h590q38 0 68 -30t30 -68v-99q0 -41 -28.5 -69.5t-69.5 -28.5q38 0 68 -30t30 -68v-98h99v-99h-295v197h-197v-197zM295 197h983v983h-983v-983zM1376 0h-1179q-44 0 -71.5 27t-27.5 71v1180q0 41 29 69.5 t70 28.5h1179q38 0 68.5 -30t30.5 -68v-1180q0 -41 -29 -69.5t-70 -28.5z" />
<glyph unicode="&#xaf;" horiz-adv-x="688" d="M639 1081h-590v197h590v-197z" />
<glyph unicode="&#xb0;" horiz-adv-x="589" d="M246 983h98v295h-98v-295zM442 885h-295q-44 0 -71 27t-27 71v295q0 41 28.5 69.5t69.5 28.5h295q38 0 68.5 -30t30.5 -68v-295q0 -41 -29 -69.5t-70 -28.5z" />
<glyph unicode="&#xb1;" horiz-adv-x="884" d="M836 0h-787v197h787v-197zM541 295h-197v295h-295v196h295v295h197v-295h295v-196h-295v-295z" />
<glyph unicode="&#xb2;" horiz-adv-x="589" d="M541 688h-492v197l295 295v98h-98v-98h-197v98q0 41 28.5 69.5t69.5 28.5h295q38 0 68.5 -30t30.5 -68v-98l-295 -295h295v-197z" />
<glyph unicode="&#xb3;" horiz-adv-x="589" d="M442 688h-295q-44 0 -71 27t-27 71v99h197v-99h98v197h-98v98l98 99v98h-98v-98h-197v196h492v-196l-99 -99q38 0 68.5 -30t30.5 -68v-197q0 -41 -29 -69.5t-70 -28.5z" />
<glyph unicode="&#xb4;" horiz-adv-x="442" d="M246 1081h-246l147 295h246z" />
<glyph unicode="&#xb5;" horiz-adv-x="1081" d="M442 -393h-295v1179h-98v197h393v-786h197v786h295v-786h98v-197h-393v98l-98 -98h-99v-393z" />
<glyph unicode="&#xb6;" d="M541 0h-295v197h98v491h-197q-44 0 -71 27t-27 71v492q0 41 28.5 69.5t69.5 28.5h787v-196h-98v-983h98v-197h-295v1180h-98v-1180z" />
<glyph unicode="&#xb7;" horiz-adv-x="393" d="M246 492h-99q-44 0 -71 27t-27 71v98q0 41 28.5 69.5t69.5 28.5h99q38 0 68 -30t30 -68v-98q0 -41 -28.5 -69.5t-69.5 -28.5z" />
<glyph unicode="&#xb8;" horiz-adv-x="491" d="M344 -393h-295v98h197v98h-99v197h197v-98h98v-197q0 -39 -30.5 -68.5t-67.5 -29.5z" />
<glyph unicode="&#xb9;" horiz-adv-x="589" d="M541 688h-394v197h99v295l-99 -99l-98 99l197 196h196v-491h99v-197z" />
<glyph unicode="&#xba;" horiz-adv-x="589" d="M246 786h98v492h-98v-492zM442 688h-295q-44 0 -71 27t-27 71v492q0 41 28.5 69.5t69.5 28.5h295q38 0 68.5 -30t30.5 -68v-492q0 -41 -29 -69.5t-70 -28.5z" />
<glyph unicode="&#xbb;" horiz-adv-x="884" d="M442 393l-393 -393v295l197 197l-197 196v295l393 -393v-197zM836 393l-394 -393v295l197 197l-197 196v295l394 -393v-197z" />
<glyph unicode="&#xbc;" horiz-adv-x="1376" d="M836 295h196v197zM1327 0h-393v98h98v99h-393v98l393 393h197v-393h98v-98h-98v-99h98v-98zM541 688h-394v197h99v295l-99 -99l-98 99l197 196h196v-491h99v-197zM442 0h-196l688 1376h196z" />
<glyph unicode="&#xbd;" horiz-adv-x="1376" d="M442 0h-196l688 1376h196zM1327 0h-491v197l294 295v98h-98v-98h-196v98q0 41 28.5 69.5t69.5 28.5h295q38 0 68 -30t30 -68v-98l-295 -295h295v-197zM541 688h-394v197h99v295l-99 -99l-98 99l197 196h196v-491h99v-197z" />
<glyph unicode="&#xbe;" horiz-adv-x="1376" d="M1327 0h-393v98h98v99h-393v98l393 393h197v-393h98v-98h-98v-99h98v-98zM442 0h-196l688 1376h196zM442 688h-295q-44 0 -71 27t-27 71v99h197v-99h98v197h-98v98l98 99v98h-98v-98h-197v196h492v-196l-99 -99q38 0 68.5 -30t30.5 -68v-197q0 -41 -29 -69.5t-70 -28.5z M836 295h196v197z" />
<glyph unicode="&#xbf;" horiz-adv-x="884" d="M737 -197h-590q-41 0 -69.5 28t-28.5 71v590q0 41 28.5 69.5t69.5 28.5h197v196h295v-393h-295v-295h197v99h295v-295q0 -39 -31 -69t-68 -30zM541 885h-99q-44 0 -71 27t-27 71v98q0 41 28.5 70t69.5 29h99q38 0 68 -30.5t30 -68.5v-98q0 -41 -28.5 -69.5t-69.5 -28.5z " />
<glyph unicode="&#xc0;" horiz-adv-x="1179" d="M442 590h295v491h-295v-491zM442 0h-393v295h98v983q0 41 29 69.5t70 28.5h688q38 0 68 -30t30 -68v-983h98v-295h-393v393h-295v-393zM737 1475h-245l-148 294h246z" />
<glyph unicode="&#xc1;" horiz-adv-x="1179" d="M442 590h295v491h-295v-491zM442 0h-393v295h98v983q0 41 29 69.5t70 28.5h688q38 0 68 -30t30 -68v-983h98v-295h-393v393h-295v-393zM688 1475h-246l148 294h246z" />
<glyph unicode="&#xc2;" horiz-adv-x="1179" d="M442 590h295v491h-295v-491zM442 0h-393v295h98v983q0 41 29 69.5t70 28.5h688q38 0 68 -30t30 -68v-983h98v-295h-393v393h-295v-393zM492 1475h-148l148 294h196l148 -294h-148l-98 98z" />
<glyph unicode="&#xc3;" horiz-adv-x="1179" d="M442 590h295v491h-295v-491zM442 0h-393v295h98v983q0 41 29 69.5t70 28.5h688q38 0 68 -30t30 -68v-983h98v-295h-393v393h-295v-393zM393 1475h-98v196q0 41 28.5 69.5t69.5 28.5h197l98 -98h98v98h99v-196q0 -41 -29 -69.5t-70 -28.5h-196l-98 98h-99v-98z" />
<glyph unicode="&#xc4;" horiz-adv-x="1179" d="M442 590h295v491h-295v-491zM442 0h-393v295h98v983q0 41 29 69.5t70 28.5h688q38 0 68 -30t30 -68v-983h98v-295h-393v393h-295v-393zM442 1475h-98q-44 0 -71 27t-27 71v98q0 41 28.5 69.5t69.5 28.5h98q38 0 68.5 -30t30.5 -68v-98q0 -41 -29 -69.5t-70 -28.5z M836 1475h-99q-44 0 -71 27t-27 71v98q0 41 28.5 69.5t69.5 28.5h99q38 0 68 -30t30 -68v-98q0 -41 -28.5 -69.5t-69.5 -28.5z" />
<glyph unicode="&#xc5;" horiz-adv-x="1179" d="M442 590h295v491h-295v-491zM442 0h-393v295h98v983q0 41 29 69.5t70 28.5h688q38 0 68 -30t30 -68v-983h98v-295h-393v393h-295v-393zM541 1573h98v98h-98v-98zM639 1475h-98q-44 0 -71.5 27t-27.5 71v98q0 41 29 69.5t70 28.5h98q38 0 68 -30t30 -68v-98 q0 -41 -28.5 -69.5t-69.5 -28.5z" />
<glyph unicode="&#xc6;" horiz-adv-x="1671" d="M442 590h295v491h-295v-491zM442 0h-393v295h98v983q0 41 29 69.5t70 28.5h1376v-393h-295v98h-295v-295h393v-196h-393v-295h295v98h295v-393h-885v393h-295v-393z" />
<glyph unicode="&#xc7;" d="M592 -393h-295v98h197v98h-99v197h-248q-44 0 -71 27t-27 71v1180q0 41 28.5 69.5t69.5 28.5h787v-491h-295v196h-295v-786h295v197h295v-492h-342v-98h98v-197q0 -39 -30.5 -68.5t-67.5 -29.5z" />
<glyph unicode="&#xc8;" horiz-adv-x="1081" d="M1032 0h-983v295h98v786h-98v295h983v-393h-295v98h-295v-295h394v-196h-394v-295h295v98h295v-393zM737 1475h-245l-148 294h246z" />
<glyph unicode="&#xc9;" horiz-adv-x="1081" d="M1032 0h-983v295h98v786h-98v295h983v-393h-295v98h-295v-295h394v-196h-394v-295h295v98h295v-393zM688 1475h-246l148 294h246z" />
<glyph unicode="&#xca;" horiz-adv-x="1081" d="M1032 0h-983v295h98v786h-98v295h983v-393h-295v98h-295v-295h394v-196h-394v-295h295v98h295v-393zM442 1475h-147l147 294h197l147 -294h-147l-98 98z" />
<glyph unicode="&#xcb;" horiz-adv-x="1081" d="M1032 0h-983v295h98v786h-98v295h983v-393h-295v98h-295v-295h394v-196h-394v-295h295v98h295v-393zM393 1475h-98q-44 0 -71 27t-27 71v98q0 41 28.5 69.5t69.5 28.5h98q38 0 68.5 -30t30.5 -68v-98q0 -41 -29 -69.5t-70 -28.5zM786 1475h-98q-44 0 -71 27t-27 71v98 q0 41 28.5 69.5t69.5 28.5h98q38 0 68.5 -30t30.5 -68v-98q0 -41 -29 -69.5t-70 -28.5z" />
<glyph unicode="&#xcc;" horiz-adv-x="589" d="M541 0h-492v295h98v786h-98v295h492v-295h-99v-786h99v-295zM442 1475h-245l-148 294h246z" />
<glyph unicode="&#xcd;" horiz-adv-x="589" d="M541 0h-492v295h98v786h-98v295h492v-295h-99v-786h99v-295zM393 1475h-246l148 294h246z" />
<glyph unicode="&#xce;" horiz-adv-x="589" d="M541 0h-492v295h98v786h-98v295h492v-295h-99v-786h99v-295zM197 1475h-148l148 294h196l148 -294h-148l-98 98z" />
<glyph unicode="&#xcf;" horiz-adv-x="589" d="M541 0h-492v295h98v786h-98v295h492v-295h-99v-786h99v-295zM147 1475h-98q-44 0 -71 27t-27 71v98q0 41 28.5 69.5t69.5 28.5h98q38 0 68.5 -30t30.5 -68v-98q0 -41 -29 -69.5t-70 -28.5zM541 1475h-99q-44 0 -71 27t-27 71v98q0 41 28.5 69.5t69.5 28.5h99q38 0 68 -30 t30 -68v-98q0 -41 -28.5 -69.5t-69.5 -28.5z" />
<glyph unicode="&#xd0;" horiz-adv-x="1081" d="M442 295h295v786h-295v-295h99v-196h-99v-295zM934 0h-885v295h98v295h-98v196h98v295h-98v295h885q38 0 68 -30t30 -68v-1180q0 -41 -28.5 -69.5t-69.5 -28.5z" />
<glyph unicode="&#xd1;" horiz-adv-x="1277" d="M442 0h-393v295h98v786h-98v295h393l394 -786v786h393v-295h-99v-786h99v-295h-393l-394 786v-786zM442 1475h-98v196q0 41 28.5 69.5t69.5 28.5h197l98 -98h99v98h98v-196q0 -41 -28.5 -69.5t-69.5 -28.5h-197l-98 98h-99v-98z" />
<glyph unicode="&#xd2;" d="M344 295h295v786h-295v-786zM836 0h-689q-44 0 -71 27t-27 71v1180q0 41 28.5 69.5t69.5 28.5h689q38 0 68 -30t30 -68v-1180q0 -41 -28.5 -69.5t-69.5 -28.5zM639 1475h-246l-147 294h246z" />
<glyph unicode="&#xd3;" d="M344 295h295v786h-295v-786zM836 0h-689q-44 0 -71 27t-27 71v1180q0 41 28.5 69.5t69.5 28.5h689q38 0 68 -30t30 -68v-1180q0 -41 -28.5 -69.5t-69.5 -28.5zM590 1475h-246l148 294h245z" />
<glyph unicode="&#xd4;" d="M344 295h295v786h-295v-786zM836 0h-689q-44 0 -71 27t-27 71v1180q0 41 28.5 69.5t69.5 28.5h689q38 0 68 -30t30 -68v-1180q0 -41 -28.5 -69.5t-69.5 -28.5zM393 1475h-147l147 294h197l147 -294h-147l-98 98z" />
<glyph unicode="&#xd5;" d="M344 295h295v786h-295v-786zM836 0h-689q-44 0 -71 27t-27 71v1180q0 41 28.5 69.5t69.5 28.5h689q38 0 68 -30t30 -68v-1180q0 -41 -28.5 -69.5t-69.5 -28.5zM303 1475h-98v196q0 41 28.5 69.5t69.5 28.5h197l98 -98h98v98h99v-196q0 -41 -29 -69.5t-70 -28.5h-196 l-99 98h-98v-98z" />
<glyph unicode="&#xd6;" d="M344 295h295v786h-295v-786zM836 0h-689q-44 0 -71 27t-27 71v1180q0 41 28.5 69.5t69.5 28.5h689q38 0 68 -30t30 -68v-1180q0 -41 -28.5 -69.5t-69.5 -28.5zM344 1475h-98q-44 0 -71.5 27t-27.5 71v98q0 41 29 69.5t70 28.5h98q38 0 68 -30t30 -68v-98 q0 -41 -28.5 -69.5t-69.5 -28.5zM737 1475h-98q-44 0 -71 27t-27 71v98q0 41 28.5 69.5t69.5 28.5h98q38 0 68.5 -30t30.5 -68v-98q0 -41 -29 -69.5t-70 -28.5z" />
<glyph unicode="&#xd7;" d="M197 246l-148 147l295 295l-295 295l148 147l295 -294l294 294l148 -147l-295 -295l295 -295l-148 -147l-294 295z" />
<glyph unicode="&#xd8;" d="M147 -98h-98l53 106q-53 21 -53 90v1180q0 41 28.5 69.5t69.5 28.5h639l50 99h98l-55 -111q25 -12 40 -36t15 -50v-1180q0 -41 -28.5 -69.5t-69.5 -28.5h-639zM344 1081v-589l295 589h-295zM344 295h295v590z" />
<glyph unicode="&#xd9;" horiz-adv-x="1179" d="M934 0h-688q-44 0 -71.5 27t-27.5 71v983h-98v295h393v-1081h295v1081h393v-295h-98v-983q0 -41 -28.5 -69.5t-69.5 -28.5zM737 1475h-245l-148 294h246z" />
<glyph unicode="&#xda;" horiz-adv-x="1179" d="M934 0h-688q-44 0 -71.5 27t-27.5 71v983h-98v295h393v-1081h295v1081h393v-295h-98v-983q0 -41 -28.5 -69.5t-69.5 -28.5zM688 1475h-246l148 294h246z" />
<glyph unicode="&#xdb;" horiz-adv-x="1179" d="M934 0h-688q-44 0 -71.5 27t-27.5 71v983h-98v295h393v-1081h295v1081h393v-295h-98v-983q0 -41 -28.5 -69.5t-69.5 -28.5zM492 1475h-148l148 294h196l148 -294h-148l-98 98z" />
<glyph unicode="&#xdc;" horiz-adv-x="1179" d="M934 0h-688q-44 0 -71.5 27t-27.5 71v983h-98v295h393v-1081h295v1081h393v-295h-98v-983q0 -41 -28.5 -69.5t-69.5 -28.5zM442 1475h-98q-44 0 -71 27t-27 71v98q0 41 28.5 69.5t69.5 28.5h98q38 0 68.5 -30t30.5 -68v-98q0 -41 -29 -69.5t-70 -28.5zM836 1475h-99 q-44 0 -71 27t-27 71v98q0 41 28.5 69.5t69.5 28.5h99q38 0 68 -30t30 -68v-98q0 -41 -28.5 -69.5t-69.5 -28.5z" />
<glyph unicode="&#xdd;" horiz-adv-x="1179" d="M836 0h-492v295h98v197l-295 589h-98v295h295l246 -491l246 491h294v-295h-98l-295 -589v-197h99v-295zM688 1475h-246l148 294h246z" />
<glyph unicode="&#xde;" horiz-adv-x="1081" d="M442 590h295v196h-295v-196zM541 0h-492v295h98v786h-98v295h492v-295h-99v-98h492q38 0 68 -30t30 -68v-393q0 -41 -28.5 -70t-69.5 -29h-492v-98h99v-295z" />
<glyph unicode="&#xdf;" d="M442 0h-393v197h98v1081q0 41 29 69.5t70 28.5h590q38 0 68 -30t30 -68v-492q0 -41 -28.5 -69.5t-69.5 -28.5q38 0 68 -30t30 -68v-492q0 -41 -28.5 -69.5t-69.5 -28.5h-295v197h98v393h-98v196h98v394h-197v-1180z" />
<glyph unicode="&#xe0;" d="M344 197h197v196h-197v-196zM442 0h-295q-44 0 -71 27t-27 71v394q0 41 28.5 69.5t69.5 28.5h394v196h-197v-98h-295v197q0 41 28.5 69.5t69.5 28.5h590q38 0 68.5 -30t30.5 -68v-688h98v-197h-393v98zM590 1081h-246l-147 295h245z" />
<glyph unicode="&#xe1;" d="M344 197h197v196h-197v-196zM442 0h-295q-44 0 -71 27t-27 71v394q0 41 28.5 69.5t69.5 28.5h394v196h-197v-98h-295v197q0 41 28.5 69.5t69.5 28.5h590q38 0 68.5 -30t30.5 -68v-688h98v-197h-393v98zM541 1081h-246l147 295h246z" />
<glyph unicode="&#xe2;" d="M344 197h197v196h-197v-196zM442 0h-295q-44 0 -71 27t-27 71v394q0 41 28.5 69.5t69.5 28.5h394v196h-197v-98h-295v197q0 41 28.5 69.5t69.5 28.5h590q38 0 68.5 -30t30.5 -68v-688h98v-197h-393v98zM344 1081h-147l147 295h197l147 -295h-147l-99 99z" />
<glyph unicode="&#xe3;" d="M344 197h197v196h-197v-196zM442 0h-295q-44 0 -71 27t-27 71v394q0 41 28.5 69.5t69.5 28.5h394v196h-197v-98h-295v197q0 41 28.5 69.5t69.5 28.5h590q38 0 68.5 -30t30.5 -68v-688h98v-197h-393v98zM246 1081h-99v197q0 41 29 69.5t70 28.5h196l99 -98h98v98h98v-196 q0 -41 -28.5 -70t-69.5 -29h-197l-98 99h-98v-99z" />
<glyph unicode="&#xe4;" d="M344 197h197v196h-197v-196zM442 0h-295q-44 0 -71 27t-27 71v394q0 41 28.5 69.5t69.5 28.5h394v196h-197v-98h-295v197q0 41 28.5 69.5t69.5 28.5h590q38 0 68.5 -30t30.5 -68v-688h98v-197h-393v98zM295 1081h-98q-44 0 -71.5 27.5t-27.5 71.5v98q0 41 29 69.5 t70 28.5h98q38 0 68 -30t30 -68v-98q0 -41 -28.5 -70t-69.5 -29zM688 1081h-98q-44 0 -71 27.5t-27 71.5v98q0 41 28.5 69.5t69.5 28.5h98q38 0 68 -30t30 -68v-98q0 -41 -28.5 -70t-69.5 -29z" />
<glyph unicode="&#xe5;" d="M344 197h197v196h-197v-196zM442 0h-295q-44 0 -71 27t-27 71v394q0 41 28.5 69.5t69.5 28.5h394v196h-197v-98h-295v197q0 41 28.5 69.5t69.5 28.5h590q38 0 68.5 -30t30.5 -68v-688h98v-197h-393v98zM393 1180h99v98h-99v-98zM492 1081h-99q-44 0 -71 27.5t-27 71.5v98 q0 41 28.5 69.5t69.5 28.5h99q38 0 68 -30t30 -68v-98q0 -41 -28.5 -70t-69.5 -29z" />
<glyph unicode="&#xe6;" horiz-adv-x="1376" d="M344 197h197v196h-197v-196zM836 590h196v196h-196v-196zM442 0h-295q-44 0 -71 27t-27 71v394q0 41 28.5 69.5t69.5 28.5h394v196h-197v-98h-295v197q0 41 28.5 69.5t69.5 28.5h1082q38 0 68 -30t30 -68v-492h-491v-196h196v98h295v-197q0 -41 -28.5 -69.5t-69.5 -28.5 h-688v98z" />
<glyph unicode="&#xe7;" horiz-adv-x="884" d="M541 -393h-295v98h196v98h-98v197h-197q-44 0 -71 27t-27 71v787q0 41 28.5 69.5t69.5 28.5h590q38 0 68.5 -30t30.5 -68v-197h-295v98h-197v-589h197v98h295v-197q0 -41 -29 -69.5t-70 -28.5h-196v-98h98v-197q0 -39 -30.5 -68.5t-67.5 -29.5z" />
<glyph unicode="&#xe8;" horiz-adv-x="884" d="M344 590h197v196h-197v-196zM737 0h-590q-44 0 -71 27t-27 71v787q0 41 28.5 69.5t69.5 28.5h590q38 0 68.5 -30t30.5 -68v-492h-492v-196h197v98h295v-197q0 -41 -29 -69.5t-70 -28.5zM590 1081h-246l-147 295h245z" />
<glyph unicode="&#xe9;" horiz-adv-x="884" d="M344 590h197v196h-197v-196zM737 0h-590q-44 0 -71 27t-27 71v787q0 41 28.5 69.5t69.5 28.5h590q38 0 68.5 -30t30.5 -68v-492h-492v-196h197v98h295v-197q0 -41 -29 -69.5t-70 -28.5zM541 1081h-246l147 295h246z" />
<glyph unicode="&#xea;" horiz-adv-x="884" d="M344 590h197v196h-197v-196zM737 0h-590q-44 0 -71 27t-27 71v787q0 41 28.5 69.5t69.5 28.5h590q38 0 68.5 -30t30.5 -68v-492h-492v-196h197v98h295v-197q0 -41 -29 -69.5t-70 -28.5zM344 1081h-147l147 295h197l147 -295h-147l-99 99z" />
<glyph unicode="&#xeb;" horiz-adv-x="884" d="M344 590h197v196h-197v-196zM737 0h-590q-44 0 -71 27t-27 71v787q0 41 28.5 69.5t69.5 28.5h590q38 0 68.5 -30t30.5 -68v-492h-492v-196h197v98h295v-197q0 -41 -29 -69.5t-70 -28.5zM295 1081h-98q-44 0 -71.5 27.5t-27.5 71.5v98q0 41 29 69.5t70 28.5h98 q38 0 68 -30t30 -68v-98q0 -41 -28.5 -70t-69.5 -29zM688 1081h-98q-44 0 -71 27.5t-27 71.5v98q0 41 28.5 69.5t69.5 28.5h98q38 0 68 -30t30 -68v-98q0 -41 -28.5 -70t-69.5 -29z" />
<glyph unicode="&#xec;" horiz-adv-x="589" d="M541 0h-492v197h98v589h-98v197h393v-786h99v-197zM442 1081h-245l-148 295h246z" />
<glyph unicode="&#xed;" horiz-adv-x="589" d="M541 0h-492v197h98v589h-98v197h393v-786h99v-197zM393 1081h-246l148 295h246z" />
<glyph unicode="&#xee;" horiz-adv-x="589" d="M541 0h-492v197h98v589h-98v197h393v-786h99v-197zM197 1081h-148l148 295h196l148 -295h-148l-98 99z" />
<glyph unicode="&#xef;" horiz-adv-x="589" d="M541 0h-492v197h98v589h-98v197h393v-786h99v-197zM147 1081h-98q-44 0 -71 27.5t-27 71.5v98q0 41 28.5 69.5t69.5 28.5h98q38 0 68.5 -30t30.5 -68v-98q0 -41 -29 -70t-70 -29zM541 1081h-99q-44 0 -71 27.5t-27 71.5v98q0 41 28.5 69.5t69.5 28.5h99q38 0 68 -30 t30 -68v-98q0 -41 -28.5 -70t-69.5 -29z" />
<glyph unicode="&#xf0;" horiz-adv-x="884" d="M344 197h197v589h-197v-589zM737 0h-590q-44 0 -71 27t-27 71v787q0 41 28.5 69.5t69.5 28.5h295l-49 98h-49l-98 -49v98l98 50l-98 196h295l49 -98h49l98 49v-98l-98 -49l197 -394v-688q0 -41 -29 -69.5t-70 -28.5z" />
<glyph unicode="&#xf1;" horiz-adv-x="1081" d="M442 0h-295v786h-98v197h393v-98l99 98h295q38 0 68 -30t30 -68v-688h98v-197h-393v786h-197v-786zM344 1081h-98v197q0 41 28.5 69.5t69.5 28.5h197l98 -98h98v98h99v-196q0 -41 -29 -70t-70 -29h-196l-99 99h-98v-99z" />
<glyph unicode="&#xf2;" horiz-adv-x="884" d="M344 197h197v589h-197v-589zM737 0h-590q-44 0 -71 27t-27 71v787q0 41 28.5 69.5t69.5 28.5h590q38 0 68.5 -30t30.5 -68v-787q0 -41 -29 -69.5t-70 -28.5zM590 1081h-246l-147 295h245z" />
<glyph unicode="&#xf3;" horiz-adv-x="884" d="M344 197h197v589h-197v-589zM737 0h-590q-44 0 -71 27t-27 71v787q0 41 28.5 69.5t69.5 28.5h590q38 0 68.5 -30t30.5 -68v-787q0 -41 -29 -69.5t-70 -28.5zM541 1081h-246l147 295h246z" />
<glyph unicode="&#xf4;" horiz-adv-x="884" d="M344 197h197v589h-197v-589zM737 0h-590q-44 0 -71 27t-27 71v787q0 41 28.5 69.5t69.5 28.5h590q38 0 68.5 -30t30.5 -68v-787q0 -41 -29 -69.5t-70 -28.5zM344 1081h-147l147 295h197l147 -295h-147l-99 99z" />
<glyph unicode="&#xf5;" horiz-adv-x="884" d="M344 197h197v589h-197v-589zM737 0h-590q-44 0 -71 27t-27 71v787q0 41 28.5 69.5t69.5 28.5h590q38 0 68.5 -30t30.5 -68v-787q0 -41 -29 -69.5t-70 -28.5zM246 1081h-99v197q0 41 29 69.5t70 28.5h196l99 -98h98v98h98v-196q0 -41 -28.5 -70t-69.5 -29h-197l-98 99h-98 v-99z" />
<glyph unicode="&#xf6;" horiz-adv-x="884" d="M344 197h197v589h-197v-589zM737 0h-590q-44 0 -71 27t-27 71v787q0 41 28.5 69.5t69.5 28.5h590q38 0 68.5 -30t30.5 -68v-787q0 -41 -29 -69.5t-70 -28.5zM295 1081h-98q-44 0 -71.5 27.5t-27.5 71.5v98q0 41 29 69.5t70 28.5h98q38 0 68 -30t30 -68v-98 q0 -41 -28.5 -70t-69.5 -29zM688 1081h-98q-44 0 -71 27.5t-27 71.5v98q0 41 28.5 69.5t69.5 28.5h98q38 0 68 -30t30 -68v-98q0 -41 -28.5 -70t-69.5 -29z" />
<glyph unicode="&#xf7;" horiz-adv-x="884" d="M442 197q-44 0 -71 27t-27 71q0 41 28.5 69.5t69.5 28.5q38 0 68.5 -30t30.5 -68q0 -41 -29 -69.5t-70 -28.5zM836 590h-787v196h787v-196zM442 983q-44 0 -71 27t-27 71q0 41 28.5 70t69.5 29q38 0 68.5 -30.5t30.5 -68.5q0 -41 -29 -69.5t-70 -28.5z" />
<glyph unicode="&#xf8;" d="M393 197h197v295l-197 -197v-98zM393 786v-294l197 196v98h-197zM885 983l98 -98l-98 -99v-688q0 -41 -29 -69.5t-70 -28.5h-589l-50 49l-49 -49l-98 98l98 99v688q0 41 29 69.5t70 28.5h589l54 -49z" />
<glyph unicode="&#xf9;" horiz-adv-x="1081" d="M541 0h-295q-44 0 -71.5 27t-27.5 71v688h-98v197h393v-786h197v786h295v-786h98v-197h-393v98zM688 1081h-246l-147 295h246z" />
<glyph unicode="&#xfa;" horiz-adv-x="1081" d="M541 0h-295q-44 0 -71.5 27t-27.5 71v688h-98v197h393v-786h197v786h295v-786h98v-197h-393v98zM639 1081h-246l148 295h245z" />
<glyph unicode="&#xfb;" horiz-adv-x="1081" d="M541 0h-295q-44 0 -71.5 27t-27.5 71v688h-98v197h393v-786h197v786h295v-786h98v-197h-393v98zM442 1081h-147l147 295h197l147 -295h-147l-98 99z" />
<glyph unicode="&#xfc;" horiz-adv-x="1081" d="M541 0h-295q-44 0 -71.5 27t-27.5 71v688h-98v197h393v-786h197v786h295v-786h98v-197h-393v98zM393 1081h-98q-44 0 -71 27.5t-27 71.5v98q0 41 28.5 69.5t69.5 28.5h98q38 0 68.5 -30t30.5 -68v-98q0 -41 -29 -70t-70 -29zM786 1081h-98q-44 0 -71 27.5t-27 71.5v98 q0 41 28.5 69.5t69.5 28.5h98q38 0 68.5 -30t30.5 -68v-98q0 -41 -29 -70t-70 -29z" />
<glyph unicode="&#xfd;" horiz-adv-x="1081" d="M492 -393h-295v196h98l98 197l-246 492v294h-98v197h393v-491l99 -197l98 197v491h393v-197h-98v-294zM639 1081h-246l148 295h245z" />
<glyph unicode="&#xfe;" d="M442 197h197v589h-197v-589zM541 -393h-492v196h98v1377h-98v196h393v-491l99 98h295q38 0 68 -30t30 -68v-787q0 -41 -28.5 -69.5t-69.5 -28.5h-295l-99 98v-295h99v-196z" />
<glyph unicode="&#xff;" horiz-adv-x="1081" d="M492 -393h-295v196h98l98 197l-246 492v294h-98v197h393v-491l99 -197l98 197v491h393v-197h-98v-294zM393 1081h-98q-44 0 -71 27.5t-27 71.5v98q0 41 28.5 69.5t69.5 28.5h98q38 0 68.5 -30t30.5 -68v-98q0 -41 -29 -70t-70 -29zM786 1081h-98q-44 0 -71 27.5t-27 71.5 v98q0 41 28.5 69.5t69.5 28.5h98q38 0 68.5 -30t30.5 -68v-98q0 -41 -29 -70t-70 -29z" />
<glyph unicode="&#x152;" horiz-adv-x="1572" d="M344 295h295v786h-295v-786zM1524 0h-1377q-44 0 -71 27t-27 71v1180q0 41 28.5 69.5t69.5 28.5h1377v-393h-295v98h-295v-295h393v-196h-393v-295h295v98h295v-393z" />
<glyph unicode="&#x153;" horiz-adv-x="1376" d="M344 197h197v589h-197v-589zM836 590h196v196h-196v-196zM1229 0h-1082q-44 0 -71 27t-27 71v787q0 41 28.5 69.5t69.5 28.5h1082q38 0 68 -30t30 -68v-492h-491v-196h196v98h295v-197q0 -41 -28.5 -69.5t-69.5 -28.5z" />
<glyph unicode="&#x178;" horiz-adv-x="1179" d="M836 0h-492v295h98v197l-295 589h-98v295h295l246 -491l246 491h294v-295h-98l-295 -589v-197h99v-295zM442 1475h-98q-44 0 -71 27t-27 71v98q0 41 28.5 69.5t69.5 28.5h98q38 0 68.5 -30t30.5 -68v-98q0 -41 -29 -69.5t-70 -28.5zM836 1475h-99q-44 0 -71 27t-27 71v98 q0 41 28.5 69.5t69.5 28.5h99q38 0 68 -30t30 -68v-98q0 -41 -28.5 -69.5t-69.5 -28.5z" />
<glyph unicode="&#x2c6;" horiz-adv-x="589" d="M197 1081h-148l148 295h196l148 -295h-148l-98 99z" />
<glyph unicode="&#x2dc;" horiz-adv-x="688" d="M147 1081h-98v197q0 41 28.5 69.5t69.5 28.5h197l98 -98h99v98h98v-196q0 -41 -28.5 -70t-69.5 -29h-197l-98 99h-99v-99z" />
<glyph unicode="&#x2000;" horiz-adv-x="884" />
<glyph unicode="&#x2001;" horiz-adv-x="1769" />
<glyph unicode="&#x2002;" horiz-adv-x="884" />
<glyph unicode="&#x2003;" horiz-adv-x="1769" />
<glyph unicode="&#x2004;" horiz-adv-x="589" />
<glyph unicode="&#x2005;" horiz-adv-x="442" />
<glyph unicode="&#x2006;" horiz-adv-x="294" />
<glyph unicode="&#x2007;" horiz-adv-x="294" />
<glyph unicode="&#x2008;" horiz-adv-x="221" />
<glyph unicode="&#x2009;" horiz-adv-x="353" />
<glyph unicode="&#x200a;" horiz-adv-x="98" />
<glyph unicode="&#x2010;" horiz-adv-x="688" d="M639 590h-590v196h590v-196z" />
<glyph unicode="&#x2011;" horiz-adv-x="688" d="M639 590h-590v196h590v-196z" />
<glyph unicode="&#x2012;" horiz-adv-x="688" d="M639 590h-590v196h590v-196z" />
<glyph unicode="&#x2013;" d="M934 590h-885v196h885v-196z" />
<glyph unicode="&#x2014;" horiz-adv-x="1277" d="M1229 590h-1180v196h1180v-196z" />
<glyph unicode="&#x2018;" horiz-adv-x="393" d="M246 885h-99q-44 0 -71 27t-27 71v98l148 295h147l-98 -196q38 0 68 -30.5t30 -68.5v-98q0 -41 -28.5 -69.5t-69.5 -28.5z" />
<glyph unicode="&#x2019;" horiz-adv-x="393" d="M197 885h-148l98 196q-44 0 -71 27.5t-27 71.5v98q0 41 28.5 69.5t69.5 28.5h99q38 0 68 -30t30 -68v-98z" />
<glyph unicode="&#x201a;" horiz-adv-x="393" d="M197 -197h-148l98 197q-44 0 -71 27t-27 71v99q0 41 28.5 69.5t69.5 28.5h99q38 0 68 -30t30 -68v-99z" />
<glyph unicode="&#x201c;" horiz-adv-x="786" d="M246 885h-99q-44 0 -71 27t-27 71v98l148 295h147l-98 -196q38 0 68 -30.5t30 -68.5v-98q0 -41 -28.5 -69.5t-69.5 -28.5zM639 885h-98q-44 0 -71.5 27t-27.5 71v98l148 295h147l-98 -196q38 0 68 -30.5t30 -68.5v-98q0 -41 -28.5 -69.5t-69.5 -28.5z" />
<glyph unicode="&#x201d;" horiz-adv-x="786" d="M197 885h-148l98 196q-44 0 -71 27.5t-27 71.5v98q0 41 28.5 69.5t69.5 28.5h99q38 0 68 -30t30 -68v-98zM590 885h-148l99 196q-44 0 -71.5 27.5t-27.5 71.5v98q0 41 29 69.5t70 28.5h98q38 0 68 -30t30 -68v-98z" />
<glyph unicode="&#x201e;" horiz-adv-x="786" d="M197 -197h-148l98 197q-44 0 -71 27t-27 71v99q0 41 28.5 69.5t69.5 28.5h99q38 0 68 -30t30 -68v-99zM590 -197h-148l99 197q-44 0 -71.5 27t-27.5 71v99q0 41 29 69.5t70 28.5h98q38 0 68 -30t30 -68v-99z" />
<glyph unicode="&#x2022;" horiz-adv-x="688" d="M541 393h-394q-44 0 -71 27.5t-27 71.5v393q0 41 28.5 69.5t69.5 28.5h394q38 0 68 -30t30 -68v-393q0 -41 -28.5 -70t-69.5 -29z" />
<glyph unicode="&#x2026;" horiz-adv-x="1179" d="M246 0h-99q-44 0 -71 27t-27 71v99q0 41 28.5 69.5t69.5 28.5h99q38 0 68 -30t30 -68v-99q0 -41 -28.5 -69.5t-69.5 -28.5zM639 0h-98q-44 0 -71.5 27t-27.5 71v99q0 41 29 69.5t70 28.5h98q38 0 68 -30t30 -68v-99q0 -41 -28.5 -69.5t-69.5 -28.5zM1032 0h-98 q-44 0 -71 27t-27 71v99q0 41 28.5 69.5t69.5 28.5h98q38 0 68 -30t30 -68v-99q0 -41 -28.5 -69.5t-69.5 -28.5z" />
<glyph unicode="&#x202f;" horiz-adv-x="353" />
<glyph unicode="&#x2039;" horiz-adv-x="491" d="M442 295v-295l-393 393v197l393 393v-295l-196 -196z" />
<glyph unicode="&#x203a;" horiz-adv-x="491" d="M442 393l-393 -393v295l197 197l-197 196v295l393 -393v-197z" />
<glyph unicode="&#x205f;" horiz-adv-x="442" />
<glyph unicode="&#x20ac;" d="M934 0h-688q-44 0 -71.5 27t-27.5 71v443h-98v98h98v98h-98v99h98v442q0 41 29 69.5t70 28.5h688v-393h-295v98h-197v-245h295v-99h-295v-98h295v-98h-295v-246h197v98h295v-393z" />
<glyph unicode="&#x2122;" horiz-adv-x="1572" d="M541 688h-394v148h99v393h-99v-148h-98v295h590v-295h-98v148h-99v-393h99v-148zM1032 688h-295v148h99v393h-99v147h246l147 -295l148 295h246v-147h-99v-393h99v-148h-295v295l-99 -197l-98 197v-295z" />
<glyph unicode="&#x25fc;" d="M0 983h983v-983h-983v983z" />
</font>
</defs>
</svg>
